<?xml version="1.0" encoding="UTF-8" standalone="no"?>
<!-- Created with Inkscape (http://www.inkscape.org/) -->

<svg
   xmlns:dc="http://purl.org/dc/elements/1.1/"
   xmlns:cc="http://creativecommons.org/ns#"
   xmlns:rdf="http://www.w3.org/1999/02/22-rdf-syntax-ns#"
   xmlns:svg="http://www.w3.org/2000/svg"
   xmlns="http://www.w3.org/2000/svg"
   xmlns:sodipodi="http://sodipodi.sourceforge.net/DTD/sodipodi-0.dtd"
   xmlns:inkscape="http://www.inkscape.org/namespaces/inkscape"
   version="1.1"
   id="svg7287"
   xml:space="preserve"
   width="800"
   height="800"
   viewBox="0 0 800 800"
   sodipodi:docname="flowing-lines-grey-freesvg.org.svg"
   inkscape:version="0.92.4 (5da689c313, 2019-01-14)"><metadata
     id="metadata7293"><rdf:RDF><cc:Work
         rdf:about=""><dc:format>image/svg+xml</dc:format><dc:type
           rdf:resource="http://purl.org/dc/dcmitype/StillImage" /><dc:title></dc:title></cc:Work></rdf:RDF></metadata><defs
     id="defs7291"><clipPath
       clipPathUnits="userSpaceOnUse"
       id="clipPath7303"><path
         d="M 0,600 H 600 V 0 H 0 Z"
         id="path7301"
         inkscape:connector-curvature="0" /></clipPath><linearGradient
       x1="0"
       y1="0"
       x2="1"
       y2="0"
       gradientUnits="userSpaceOnUse"
       gradientTransform="matrix(600,0,0,-600,0,300)"
       spreadMethod="pad"
       id="linearGradient7321"><stop
         style="stop-opacity:1;stop-color:#ffffff"
         offset="0"
         id="stop7317" /><stop
         style="stop-opacity:1;stop-color:#e0e0e0"
         offset="1"
         id="stop7319" /></linearGradient><clipPath
       clipPathUnits="userSpaceOnUse"
       id="clipPath7411"><path
         d="M -0.0483398,600.053 H 545.297 V -0.287109 H -0.0483398 Z"
         id="path7409"
         inkscape:connector-curvature="0" /></clipPath></defs><sodipodi:namedview
     pagecolor="#ffffff"
     bordercolor="#666666"
     borderopacity="1"
     objecttolerance="10"
     gridtolerance="10"
     guidetolerance="10"
     inkscape:pageopacity="0"
     inkscape:pageshadow="2"
     inkscape:window-width="1920"
     inkscape:window-height="1018"
     id="namedview7289"
     showgrid="false"
     inkscape:zoom="0.64884715"
     inkscape:cx="652.54237"
     inkscape:cy="271.18644"
     inkscape:window-x="-8"
     inkscape:window-y="-8"
     inkscape:window-maximized="1"
     inkscape:current-layer="g7295" /><g
     id="g7295"
     inkscape:groupmode="layer"
     inkscape:label="abstract-162-publicdomainvectors.org [Converted]"
     transform="matrix(1.3333333,0,0,-1.3333333,0,800)"><g
       id="g7297"><g
         id="g7299"
         clip-path="url(#clipPath7303)"><g
           id="g7305"><g
             id="g7307"><g
               id="g7313"><g
                 id="g7315"><path
                   d="M 600,0 H 0 v 600 h 600 z"
                   style="fill:url(#linearGradient7321);stroke:none"
                   id="path7323"
                   inkscape:connector-curvature="0" /></g></g></g></g><path
           d="m 596.205,0 c -40.088,66.474 -88.503,134.955 -123.834,204.167 -28.786,56.443 -48.319,112.425 -50.032,158.847 -1.646,45.773 13.678,83.132 34.636,113.828 20.831,30.505 45.556,53.759 58.641,83.854 4.905,11.305 7.206,24.658 6.829,39.304"
           style="fill:none;stroke:#bdbcbc;stroke-width:1;stroke-linecap:butt;stroke-linejoin:miter;stroke-miterlimit:4;stroke-dasharray:none;stroke-opacity:1"
           id="path7325"
           inkscape:connector-curvature="0" /><path
           d="m 579.708,0 c -40.651,68.988 -89.329,139.486 -122.905,210.653 -26.281,55.747 -42.068,111.045 -39.648,155.319 2.465,44.615 22.162,79.33 46.254,108.421 23.752,28.62 50.111,50.52 62.964,80.53 5.344,12.512 6.924,27.968 4.923,45.077"
           style="fill:none;stroke:#bdbcbc;stroke-width:1;stroke-linecap:butt;stroke-linejoin:miter;stroke-miterlimit:4;stroke-dasharray:none;stroke-opacity:1"
           id="path7327"
           inkscape:connector-curvature="0" /><path
           d="m 564.062,0 c -41.848,71.776 -91.124,144.361 -122.939,217.48 -23.964,55.139 -35.969,109.701 -29.528,151.841 6.654,43.365 30.597,75.485 57.89,102.911 26.591,26.747 54.619,47.244 67.251,77.133 5.717,13.563 6.303,31.102 2.377,50.635"
           style="fill:none;stroke:#bdbcbc;stroke-width:1;stroke-linecap:butt;stroke-linejoin:miter;stroke-miterlimit:4;stroke-dasharray:none;stroke-opacity:1"
           id="path7329"
           inkscape:connector-curvature="0" /><path
           d="m 549.386,0 c -43.659,74.787 -93.859,149.544 -123.897,224.55 -21.838,54.615 -30.064,108.381 -19.729,148.434 10.877,42.03 38.974,71.569 69.47,97.343 29.391,24.824 59.071,43.94 71.474,73.702 6.016,14.484 5.365,34.081 -0.708,55.971"
           style="fill:none;stroke:#bdbcbc;stroke-width:1;stroke-linecap:butt;stroke-linejoin:miter;stroke-miterlimit:4;stroke-dasharray:none;stroke-opacity:1"
           id="path7331"
           inkscape:connector-curvature="0" /><path
           d="m 535.787,0 c -46.039,77.971 -97.496,154.983 -125.751,231.771 -19.903,54.18 -24.362,107.059 -10.289,145.116 15.096,40.617 47.223,67.656 80.918,91.767 32.089,22.944 63.432,40.639 75.603,70.261 6.264,15.29 4.15,36.913 -4.238,61.085"
           style="fill:none;stroke:#bdbcbc;stroke-width:1;stroke-linecap:butt;stroke-linejoin:miter;stroke-miterlimit:4;stroke-dasharray:none;stroke-opacity:1"
           id="path7333"
           inkscape:connector-curvature="0" /><path
           d="M 523.301,0 C 474.386,81.27 421.358,160.63 394.87,239.059 c -18.138,53.835 -18.919,105.779 -1.224,141.904 19.243,39.164 55.287,63.793 92.158,86.222 34.693,21.104 67.665,37.384 79.617,66.843 6.463,15.996 2.72,39.609 -8.082,65.972"
           style="fill:none;stroke:#bdbcbc;stroke-width:1;stroke-linecap:butt;stroke-linejoin:miter;stroke-miterlimit:4;stroke-dasharray:none;stroke-opacity:1"
           id="path7335"
           inkscape:connector-curvature="0" /><path
           d="m 511.944,0 c -52.201,84.626 -107.101,166.412 -131.85,246.347 -16.541,53.569 -13.734,104.513 7.444,138.806 23.317,37.66 63.125,60 103.131,80.744 37.205,19.298 71.764,34.178 83.496,63.47 6.618,16.618 1.09,42.17 -12.186,70.633"
           style="fill:none;stroke:#bdbcbc;stroke-width:1;stroke-linecap:butt;stroke-linejoin:miter;stroke-miterlimit:4;stroke-dasharray:none;stroke-opacity:1"
           id="path7337"
           inkscape:connector-curvature="0" /><path
           d="M 501.682,0 C 445.88,87.988 388.838,172.268 365.785,253.571 c -15.091,53.372 -8.805,103.266 15.698,135.831 27.271,36.153 70.743,56.254 113.791,75.363 39.595,17.564 75.701,31.049 87.215,60.174 6.738,17.166 -0.687,44.599 -16.446,75.061"
           style="fill:none;stroke:#bdbcbc;stroke-width:1;stroke-linecap:butt;stroke-linejoin:miter;stroke-miterlimit:4;stroke-dasharray:none;stroke-opacity:1"
           id="path7339"
           inkscape:connector-curvature="0" /><path
           d="M 492.467,0 C 432.849,91.317 373.438,178.131 352.01,260.673 c -13.768,53.237 -4.16,102.062 23.538,132.982 31.085,34.646 78.06,52.65 124.083,70.12 21.7,8.217 41.977,15.779 58.833,25.264 14.888,8.401 26.686,18.221 31.928,31.702 6.835,17.644 -2.576,46.898 -20.796,79.259"
           style="fill:none;stroke:#bdbcbc;stroke-width:1;stroke-linecap:butt;stroke-linejoin:miter;stroke-miterlimit:4;stroke-dasharray:none;stroke-opacity:1"
           id="path7341"
           inkscape:connector-curvature="0" /><path
           d="m 484.211,0 c -18.002,26.87 -36.085,53.748 -53.463,80.85 -41.949,65.441 -78.392,129.685 -91.927,186.755 -12.566,53.153 0.222,100.884 30.957,130.265 34.746,33.165 85.087,49.158 133.963,65.037 22.875,7.436 44.092,14.274 61.614,23.227 15.336,7.865 27.404,17.299 32.512,30.643 6.904,18.07 -4.541,49.074 -25.168,83.223"
           style="fill:none;stroke:#bdbcbc;stroke-width:1;stroke-linecap:butt;stroke-linejoin:miter;stroke-miterlimit:4;stroke-dasharray:none;stroke-opacity:1"
           id="path7343"
           inkscape:connector-curvature="0" /><path
           d="M 600.878,551.348 C 595.446,565.979 586.533,582.617 575.4,600"
           style="fill:none;stroke:#bdbcbc;stroke-width:1;stroke-linecap:butt;stroke-linejoin:miter;stroke-miterlimit:4;stroke-dasharray:none;stroke-opacity:1"
           id="path7345"
           inkscape:connector-curvature="0" /><path
           d="m 477.01,0 c -19.864,28.873 -39.718,57.704 -58.665,86.774 -42.932,65.895 -79.764,130.773 -92.071,187.545 -11.466,53.109 4.329,99.749 37.951,127.684 38.245,31.705 91.768,45.829 143.392,60.144 23.987,6.683 46.112,12.794 64.246,21.272 12.473,5.83 22.781,12.732 29.015,21.904"
           style="fill:none;stroke:#bdbcbc;stroke-width:1;stroke-linecap:butt;stroke-linejoin:miter;stroke-miterlimit:4;stroke-dasharray:none;stroke-opacity:1"
           id="path7347"
           inkscape:connector-curvature="0" /><path
           d="M 600.878,560.851 C 594.874,573.079 586.956,586.329 577.754,600"
           style="fill:none;stroke:#bdbcbc;stroke-width:1;stroke-linecap:butt;stroke-linejoin:miter;stroke-miterlimit:4;stroke-dasharray:none;stroke-opacity:1"
           id="path7349"
           inkscape:connector-curvature="0" /><path
           d="m 470.609,0 c -21.729,30.79 -43.349,61.486 -63.841,92.438 -43.906,66.333 -81.175,131.852 -92.365,188.34 -10.471,53.101 8.16,98.671 44.515,125.24 41.559,30.301 98.123,42.627 152.34,55.463 25.055,5.932 47.992,11.425 66.724,19.41 8.981,3.832 16.846,8.233 22.896,13.634"
           style="fill:none;stroke:#bdbcbc;stroke-width:1;stroke-linecap:butt;stroke-linejoin:miter;stroke-miterlimit:4;stroke-dasharray:none;stroke-opacity:1"
           id="path7351"
           inkscape:connector-curvature="0" /><path
           d="m 600.878,567.017 c -5.954,10.5 -13.108,21.606 -21.09,32.983"
           style="fill:none;stroke:#bdbcbc;stroke-width:1;stroke-linecap:butt;stroke-linejoin:miter;stroke-miterlimit:4;stroke-dasharray:none;stroke-opacity:1"
           id="path7353"
           inkscape:connector-curvature="0" /><path
           d="m 464.938,0 c -23.578,32.621 -46.932,65.086 -68.93,97.822 -44.852,66.755 -82.589,132.894 -92.762,189.119 -9.56,53.115 11.712,97.655 50.649,122.94 44.671,28.967 104.104,39.598 160.768,51.017 26.048,5.234 49.756,10.128 69.04,17.651 6.36,2.488 12.168,5.26 17.175,8.472"
           style="fill:none;stroke:#bdbcbc;stroke-width:1;stroke-linecap:butt;stroke-linejoin:miter;stroke-miterlimit:4;stroke-dasharray:none;stroke-opacity:1"
           id="path7355"
           inkscape:connector-curvature="0" /><path
           d="M 600.878,571.531 C 595.167,580.7 588.65,590.259 581.567,600"
           style="fill:none;stroke:#bdbcbc;stroke-width:1;stroke-linecap:butt;stroke-linejoin:miter;stroke-miterlimit:4;stroke-dasharray:none;stroke-opacity:1"
           id="path7357"
           inkscape:connector-curvature="0" /><path
           d="m 459.933,0 c -25.384,34.354 -50.428,68.491 -73.886,102.906 -45.752,67.159 -83.971,133.898 -93.222,189.873 -8.735,53.147 15.018,96.675 56.358,120.781 47.583,27.701 109.694,36.757 168.659,46.829 26.957,4.603 51.387,8.913 71.186,15.996 4.216,1.51 8.189,3.15 11.85,4.959"
           style="fill:none;stroke:#bdbcbc;stroke-width:1;stroke-linecap:butt;stroke-linejoin:miter;stroke-miterlimit:4;stroke-dasharray:none;stroke-opacity:1"
           id="path7359"
           inkscape:connector-curvature="0" /><path
           d="M 600.878,574.964 C 595.466,583.09 589.484,591.48 583.101,600"
           style="fill:none;stroke:#bdbcbc;stroke-width:1;stroke-linecap:butt;stroke-linejoin:miter;stroke-miterlimit:4;stroke-dasharray:none;stroke-opacity:1"
           id="path7361"
           inkscape:connector-curvature="0" /><path
           d="m 455.521,0 c -27.128,35.98 -53.795,71.684 -78.642,107.675 -46.604,67.53 -85.297,134.84 -93.708,190.579 -7.983,53.196 18.046,95.781 61.629,118.777 50.287,26.502 114.89,34.101 175.983,42.912 27.802,4.009 52.902,7.764 73.163,14.458 2.392,0.788 4.707,1.619 6.932,2.499"
           style="fill:none;stroke:#bdbcbc;stroke-width:1;stroke-linecap:butt;stroke-linejoin:miter;stroke-miterlimit:4;stroke-dasharray:none;stroke-opacity:1"
           id="path7363"
           inkscape:connector-curvature="0" /><path
           d="M 600.878,578.415 C 595.791,585.4 590.309,592.588 584.511,600"
           style="fill:none;stroke:#bdbcbc;stroke-width:1;stroke-linecap:butt;stroke-linejoin:miter;stroke-miterlimit:4;stroke-dasharray:none;stroke-opacity:1"
           id="path7365"
           inkscape:connector-curvature="0" /><path
           d="m 451.672,0 c -28.794,37.5 -57.007,74.652 -83.167,112.104 -47.396,67.876 -86.544,135.716 -94.21,191.241 -3.634,26.515 0.423,50.932 11.276,69.727 11.83,20.472 31.33,35.696 55.189,47.2 52.783,25.383 119.668,31.666 182.73,39.28 28.576,3.455 54.26,6.751 74.968,13.04 0.815,0.248 1.623,0.503 2.42,0.762"
           style="fill:none;stroke:#bdbcbc;stroke-width:1;stroke-linecap:butt;stroke-linejoin:miter;stroke-miterlimit:4;stroke-dasharray:none;stroke-opacity:1"
           id="path7367"
           inkscape:connector-curvature="0" /><path
           d="m 600.878,580.392 c -4.799,6.362 -9.904,12.893 -15.258,19.608"
           style="fill:none;stroke:#bdbcbc;stroke-width:1;stroke-linecap:butt;stroke-linejoin:miter;stroke-miterlimit:4;stroke-dasharray:none;stroke-opacity:1"
           id="path7369"
           inkscape:connector-curvature="0" /><path
           d="m 448.318,0 c -30.357,38.899 -60.018,77.387 -87.405,116.18 -48.119,68.183 -87.711,136.525 -94.689,191.843 -3.33,26.492 1.353,50.723 12.894,69.201 12.656,20.21 33.099,35.006 57.963,46.034 55.061,24.349 124.033,29.406 188.875,35.955 28.504,2.879 54.126,5.638 74.922,11.28"
           style="fill:none;stroke:#bdbcbc;stroke-width:1;stroke-linecap:butt;stroke-linejoin:miter;stroke-miterlimit:4;stroke-dasharray:none;stroke-opacity:1"
           id="path7371"
           inkscape:connector-curvature="0" /><path
           d="m 600.878,581.973 c -4.543,5.861 -9.328,11.865 -14.315,18.027"
           style="fill:none;stroke:#bdbcbc;stroke-width:1;stroke-linecap:butt;stroke-linejoin:miter;stroke-miterlimit:4;stroke-dasharray:none;stroke-opacity:1"
           id="path7373"
           inkscape:connector-curvature="0" /><path
           d="m 445.427,0 c -31.806,40.173 -62.804,79.873 -91.317,119.883 -48.77,68.468 -88.76,137.255 -95.145,192.389 -3.039,26.463 2.181,50.548 14.348,68.725 13.391,19.984 34.681,34.392 60.461,44.979 57.09,23.44 127.961,27.364 194.403,32.944 27.469,2.282 52.239,4.535 72.701,9.26"
           style="fill:none;stroke:#bdbcbc;stroke-width:1;stroke-linecap:butt;stroke-linejoin:miter;stroke-miterlimit:4;stroke-dasharray:none;stroke-opacity:1"
           id="path7375"
           inkscape:connector-curvature="0" /><path
           d="m 600.878,583.256 c -4.315,5.454 -8.83,11.031 -13.514,16.744"
           style="fill:none;stroke:#bdbcbc;stroke-width:1;stroke-linecap:butt;stroke-linejoin:miter;stroke-miterlimit:4;stroke-dasharray:none;stroke-opacity:1"
           id="path7377"
           inkscape:connector-curvature="0" /><path
           d="m 442.95,0 c -33.12,41.312 -65.329,82.095 -94.856,123.19 -49.349,68.715 -89.692,137.908 -95.556,192.873 -2.8,26.448 2.918,50.379 15.627,68.306 14.037,19.789 36.106,33.807 62.682,44.036 58.907,22.599 131.434,25.579 199.303,30.267 26.554,1.843 50.591,3.656 70.728,7.64"
           style="fill:none;stroke:#bdbcbc;stroke-width:1;stroke-linecap:butt;stroke-linejoin:miter;stroke-miterlimit:4;stroke-dasharray:none;stroke-opacity:1"
           id="path7379"
           inkscape:connector-curvature="0" /><path
           d="m 600.878,584.289 c -4.122,5.123 -8.412,10.357 -12.846,15.711"
           style="fill:none;stroke:#bdbcbc;stroke-width:1;stroke-linecap:butt;stroke-linejoin:miter;stroke-miterlimit:4;stroke-dasharray:none;stroke-opacity:1"
           id="path7381"
           inkscape:connector-curvature="0" /><path
           d="m 440.865,0 c -34.288,42.313 -67.571,84.046 -97.994,126.095 -49.852,68.927 -90.512,138.47 -95.923,193.291 -2.586,26.43 3.562,50.225 16.74,67.937 14.612,19.6 37.324,33.333 64.612,43.215 60.479,21.881 134.465,24.004 203.573,27.921 25.786,1.446 49.189,2.919 69.005,6.341"
           style="fill:none;stroke:#bdbcbc;stroke-width:1;stroke-linecap:butt;stroke-linejoin:miter;stroke-miterlimit:4;stroke-dasharray:none;stroke-opacity:1"
           id="path7383"
           inkscape:connector-curvature="0" /><path
           d="m 600.878,585.116 c -3.96,4.859 -8.066,9.818 -12.298,14.884"
           style="fill:none;stroke:#bdbcbc;stroke-width:1;stroke-linecap:butt;stroke-linejoin:miter;stroke-miterlimit:4;stroke-dasharray:none;stroke-opacity:1"
           id="path7385"
           inkscape:connector-curvature="0" /><path
           d="m 439.146,0 c -35.297,43.174 -69.508,85.713 -100.706,128.581 -50.277,69.107 -91.213,138.956 -96.236,193.644 -2.401,26.414 4.109,50.091 17.682,67.623 15.103,19.437 38.37,32.909 66.254,42.508 61.825,21.256 137.041,22.658 207.198,25.928 25.129,1.181 48.004,2.366 67.54,5.328"
           style="fill:none;stroke:#bdbcbc;stroke-width:1;stroke-linecap:butt;stroke-linejoin:miter;stroke-miterlimit:4;stroke-dasharray:none;stroke-opacity:1"
           id="path7387"
           inkscape:connector-curvature="0" /><path
           d="m 600.878,585.765 c -3.829,4.651 -7.786,9.394 -11.857,14.235"
           style="fill:none;stroke:#bdbcbc;stroke-width:1;stroke-linecap:butt;stroke-linejoin:miter;stroke-miterlimit:4;stroke-dasharray:none;stroke-opacity:1"
           id="path7389"
           inkscape:connector-curvature="0" /><path
           d="m 437.764,0 c -36.137,43.882 -71.118,87.09 -102.953,130.629 -50.628,69.257 -91.775,139.347 -96.499,193.933 -2.256,26.405 4.551,49.996 18.462,67.367 15.49,19.317 39.228,32.553 67.599,41.929 62.92,20.751 139.157,21.543 210.17,24.285 24.606,0.938 47.042,1.925 66.335,4.546"
           style="fill:none;stroke:#bdbcbc;stroke-width:1;stroke-linecap:butt;stroke-linejoin:miter;stroke-miterlimit:4;stroke-dasharray:none;stroke-opacity:1"
           id="path7391"
           inkscape:connector-curvature="0" /><path
           d="m 600.878,586.246 c -3.728,4.495 -7.574,9.078 -11.524,13.754"
           style="fill:none;stroke:#bdbcbc;stroke-width:1;stroke-linecap:butt;stroke-linejoin:miter;stroke-miterlimit:4;stroke-dasharray:none;stroke-opacity:1"
           id="path7393"
           inkscape:connector-curvature="0" /><path
           d="m 436.713,0 c -36.8,44.437 -72.389,88.173 -104.732,132.234 -50.895,69.373 -92.236,139.662 -96.7,194.158 -2.135,26.394 4.892,49.919 19.063,67.164 15.802,19.218 39.892,32.3 68.651,41.48 63.785,20.34 140.799,20.705 212.486,22.997 24.195,0.793 46.298,1.613 65.397,3.973"
           style="fill:none;stroke:#bdbcbc;stroke-width:1;stroke-linecap:butt;stroke-linejoin:miter;stroke-miterlimit:4;stroke-dasharray:none;stroke-opacity:1"
           id="path7395"
           inkscape:connector-curvature="0" /><path
           d="m 600.878,586.586 c -3.656,4.387 -7.423,8.857 -11.288,13.414"
           style="fill:none;stroke:#bdbcbc;stroke-width:1;stroke-linecap:butt;stroke-linejoin:miter;stroke-miterlimit:4;stroke-dasharray:none;stroke-opacity:1"
           id="path7397"
           inkscape:connector-curvature="0" /><path
           d="m 435.965,0 c -37.276,44.837 -73.303,88.948 -106.006,133.387 -51.093,69.454 -92.568,139.888 -96.846,194.319 -2.065,26.395 5.156,49.84 19.496,67.018 16.029,19.14 40.366,32.116 69.403,41.155 64.384,20.077 141.983,20.063 214.144,22.079 23.912,0.651 45.77,1.378 64.722,3.572"
           style="fill:none;stroke:#bdbcbc;stroke-width:1;stroke-linecap:butt;stroke-linejoin:miter;stroke-miterlimit:4;stroke-dasharray:none;stroke-opacity:1"
           id="path7399"
           inkscape:connector-curvature="0" /><path
           d="m 600.878,586.789 c -3.613,4.322 -7.333,8.724 -11.147,13.211"
           style="fill:none;stroke:#bdbcbc;stroke-width:1;stroke-linecap:butt;stroke-linejoin:miter;stroke-miterlimit:4;stroke-dasharray:none;stroke-opacity:1"
           id="path7401"
           inkscape:connector-curvature="0" /><path
           d="M 435.521,0 C 397.956,45.078 361.664,89.414 328.745,134.082 277.538,203.587 236,274.097 231.809,328.495 c -2.004,26.385 5.295,49.817 19.754,66.933 16.16,19.1 40.662,31.98 69.859,40.955 64.767,19.883 142.687,19.702 215.139,21.531 23.734,0.6 45.447,1.263 64.317,3.349"
           style="fill:none;stroke:#bdbcbc;stroke-width:1;stroke-linecap:butt;stroke-linejoin:miter;stroke-miterlimit:4;stroke-dasharray:none;stroke-opacity:1"
           id="path7403"
           inkscape:connector-curvature="0" /><g
           id="g7405"><g
             id="g7407" /><g
             id="g7465"><g
               clip-path="url(#clipPath7411)"
               id="g7463"
               style="opacity:0.19999701"><path
                 d="m 0,505.852 c 25.938,-2.398 51.503,-5.439 76.461,-9.424 97.414,-15.597 183.873,-45.401 239.26,-93.142 54.564,-47.14 80.33,-112.106 92.077,-178.788 C 419.466,158.226 418.402,93.646 438.324,40.132 443.73,25.643 451.891,12.146 462.509,0"
                 style="fill:none;stroke:#231f20;stroke-width:0.87199998;stroke-linecap:butt;stroke-linejoin:miter;stroke-miterlimit:4;stroke-dasharray:none;stroke-opacity:1"
                 id="path7413"
                 inkscape:connector-curvature="0" /><path
                 d="m 0,529.002 c 34.669,-3.596 68.676,-8.31 101.465,-14.878 93.789,-18.823 175.244,-53.839 223.502,-105.814 48.599,-52.415 66.395,-121.461 72.762,-191.379 6.212,-68.866 1.75,-134.57 21.832,-187.622 C 423.521,18.879 429.18,9.071 436.36,0"
                 style="fill:none;stroke:#231f20;stroke-width:0.87199998;stroke-linecap:butt;stroke-linejoin:miter;stroke-miterlimit:4;stroke-dasharray:none;stroke-opacity:1"
                 id="path7415"
                 inkscape:connector-curvature="0" /><path
                 d="M 0,552.731 C 43.771,547.919 86.461,541.388 126.98,531.627 217.457,509.783 293.811,469.556 335.085,413.51 377.527,355.792 387.553,282.818 388.4,209.621 389.256,138.278 381.297,71.445 401.491,18.874 404.031,12.281 407.364,5.981 411.427,0"
                 style="fill:none;stroke:#231f20;stroke-width:0.87199998;stroke-linecap:butt;stroke-linejoin:miter;stroke-miterlimit:4;stroke-dasharray:none;stroke-opacity:1"
                 id="path7417"
                 inkscape:connector-curvature="0" /><path
                 d="M 0,576.518 C 53.219,570.612 104.758,562.276 152.727,548.792 240.211,524.139 311.389,478.77 345.875,418.803 382.022,355.827 384.4,279.052 379.735,202.561 375.227,128.857 363.815,60.9 384.121,8.833 385.302,5.816 386.673,2.871 388.226,0"
                 style="fill:none;stroke:#231f20;stroke-width:0.87199998;stroke-linecap:butt;stroke-linejoin:miter;stroke-miterlimit:4;stroke-dasharray:none;stroke-opacity:1"
                 id="path7419"
                 inkscape:connector-curvature="0" /><path
                 d="M 2.034,599.62 C 64.299,592.887 124.07,582.944 178.445,565.508 263.248,538.249 329.163,487.858 357.137,424.118 386.911,355.971 381.871,275.511 371.691,195.74 362.025,120.188 347.214,51.459 367.146,0"
                 style="fill:none;stroke:#231f20;stroke-width:0.87199998;stroke-linecap:butt;stroke-linejoin:miter;stroke-miterlimit:4;stroke-dasharray:none;stroke-opacity:1"
                 id="path7421"
                 inkscape:connector-curvature="0" /><path
                 d="m 143.295,599.62 c 20.924,-5.037 41.178,-10.942 60.62,-17.925 82.419,-29.691 143.113,-84.914 164.787,-152.312 23.431,-73.159 11.203,-157.224 -4.49,-240.215 C 350.391,116.088 333.405,50 348.057,0"
                 style="fill:none;stroke:#231f20;stroke-width:0.87199998;stroke-linecap:butt;stroke-linejoin:miter;stroke-miterlimit:4;stroke-dasharray:none;stroke-opacity:1"
                 id="path7423"
                 inkscape:connector-curvature="0" /><path
                 d="m 222.866,599.62 c 2.037,-0.774 4.064,-1.561 6.081,-2.361 80.314,-31.938 135.818,-91.78 151.458,-162.718 17.11,-78.005 -1.992,-165.564 -23.157,-251.704 C 339.918,112.253 320.947,48.663 330.71,0"
                 style="fill:none;stroke:#231f20;stroke-width:0.87199998;stroke-linecap:butt;stroke-linejoin:miter;stroke-miterlimit:4;stroke-dasharray:none;stroke-opacity:1"
                 id="path7425"
                 inkscape:connector-curvature="0" /><path
                 d="M 278.646,599.62 C 342.602,563.619 383.317,505.574 392.116,439.546 403.04,356.898 377.235,265.946 350.76,176.745 330.534,108.644 309.779,47.419 315.087,0"
                 style="fill:none;stroke:#231f20;stroke-width:0.87199998;stroke-linecap:butt;stroke-linejoin:miter;stroke-miterlimit:4;stroke-dasharray:none;stroke-opacity:1"
                 id="path7427"
                 inkscape:connector-curvature="0" /><path
                 d="M 321.178,599.62 C 371.127,561.257 400.21,505.709 403.699,444.357 408.59,357.284 376.424,263.042 344.714,170.896 329.739,127.471 315.611,87.018 307.556,49.915 303.708,32.122 301.365,15.32 301.563,0"
                 style="fill:none;stroke:#231f20;stroke-width:0.87199998;stroke-linecap:butt;stroke-linejoin:miter;stroke-miterlimit:4;stroke-dasharray:none;stroke-opacity:1"
                 id="path7429"
                 inkscape:connector-curvature="0" /><path
                 d="M 355.733,599.62 C 395.036,560.071 415.606,506.701 415.049,448.946 414.112,357.665 375.839,260.259 339.085,165.305 321.89,120.863 305.869,79.704 296.449,42.115 292.744,27.265 290.156,13.125 289.313,0"
                 style="fill:none;stroke:#231f20;stroke-width:0.87199998;stroke-linecap:butt;stroke-linejoin:miter;stroke-miterlimit:4;stroke-dasharray:none;stroke-opacity:1"
                 id="path7431"
                 inkscape:connector-curvature="0" /><path
                 d="M 384.738,599.62 C 415.69,559.558 429.79,508.134 426.063,453.282 419.503,358.025 375.496,257.591 333.847,159.97 314.53,114.578 296.652,72.766 285.994,34.723 282.597,22.604 279.989,10.972 278.52,0"
                 style="fill:none;stroke:#231f20;stroke-width:0.87199998;stroke-linecap:butt;stroke-linejoin:miter;stroke-miterlimit:4;stroke-dasharray:none;stroke-opacity:1"
                 id="path7433"
                 inkscape:connector-curvature="0" /><path
                 d="m 409.591,599.62 c 24.275,-40.162 33.329,-89.84 27.071,-142.267 -11.903,-99 -61.41,-202.311 -107.683,-302.448 C 307.597,108.634 288.092,66.199 276.191,27.746 273.227,18.155 270.779,8.876 269.03,0"
                 style="fill:none;stroke:#231f20;stroke-width:0.87199998;stroke-linecap:butt;stroke-linejoin:miter;stroke-miterlimit:4;stroke-dasharray:none;stroke-opacity:1"
                 id="path7435"
                 inkscape:connector-curvature="0" /><path
                 d="M 431.136,599.62 C 450.01,559.613 455.069,511.511 446.768,461.139 429.819,358.642 375.134,252.613 324.472,150.127 301.168,103.035 280.106,60.03 267.052,21.198 264.616,13.937 262.485,6.855 260.744,0"
                 style="fill:none;stroke:#231f20;stroke-width:0.87199998;stroke-linecap:butt;stroke-linejoin:miter;stroke-miterlimit:4;stroke-dasharray:none;stroke-opacity:1"
                 id="path7437"
                 inkscape:connector-curvature="0" /><path
                 d="M 449.939,599.62 C 464.395,559.921 466.247,513.232 456.31,464.63 434.625,358.882 375.112,250.306 320.308,145.631 295.252,97.775 272.705,54.26 258.565,15.087 256.717,9.959 255.027,4.926 253.526,0"
                 style="fill:none;stroke:#231f20;stroke-width:0.87199998;stroke-linecap:butt;stroke-linejoin:miter;stroke-miterlimit:4;stroke-dasharray:none;stroke-opacity:1"
                 id="path7439"
                 inkscape:connector-curvature="0" /><path
                 d="m 466.419,599.62 c 10.84,-39.304 10.108,-84.727 -1.174,-131.796 C 439.131,359.08 375.134,248.125 316.482,141.44 289.791,92.887 265.85,48.909 250.742,9.425 249.523,6.246 248.368,3.104 247.283,0"
                 style="fill:none;stroke:#231f20;stroke-width:0.87199998;stroke-linecap:butt;stroke-linejoin:miter;stroke-miterlimit:4;stroke-dasharray:none;stroke-opacity:1"
                 id="path7441"
                 inkscape:connector-curvature="0" /><path
                 d="m 483.531,599.62 c 7.263,-38.668 2.507,-82.565 -10.006,-128.898 C 443.315,359.229 375.23,246.079 312.982,137.563 284.782,88.381 259.655,43.97 243.576,4.22 243.006,2.806 242.449,1.398 241.905,0"
                 style="fill:none;stroke:#231f20;stroke-width:0.87199998;stroke-linecap:butt;stroke-linejoin:miter;stroke-miterlimit:4;stroke-dasharray:none;stroke-opacity:1"
                 id="path7443"
                 inkscape:connector-curvature="0" /><path
                 d="M 496.033,599.62 C 500.769,561.371 494.516,518.474 481.105,473.324 447.142,359.333 375.294,244.198 309.817,134.011 280.38,84.475 254.196,39.864 237.302,0"
                 style="fill:none;stroke:#231f20;stroke-width:0.87199998;stroke-linecap:butt;stroke-linejoin:miter;stroke-miterlimit:4;stroke-dasharray:none;stroke-opacity:1"
                 id="path7445"
                 inkscape:connector-curvature="0" /><path
                 d="M 506.895,599.62 C 509.593,561.79 502.121,519.763 487.957,475.625 450.663,359.397 375.373,242.476 306.978,130.797 277.372,82.531 251.051,38.995 233.392,0"
                 style="fill:none;stroke:#231f20;stroke-width:0.87199998;stroke-linecap:butt;stroke-linejoin:miter;stroke-miterlimit:4;stroke-dasharray:none;stroke-opacity:1"
                 id="path7447"
                 inkscape:connector-curvature="0" /><path
                 d="M 516.249,599.62 C 517.281,562.188 508.771,520.916 494.053,477.639 453.737,359.437 375.498,240.91 304.468,127.931 274.841,80.779 248.397,38.213 230.104,0"
                 style="fill:none;stroke:#231f20;stroke-width:0.87199998;stroke-linecap:butt;stroke-linejoin:miter;stroke-miterlimit:4;stroke-dasharray:none;stroke-opacity:1"
                 id="path7449"
                 inkscape:connector-curvature="0" /><path
                 d="M 524.18,599.62 C 523.876,562.548 514.59,521.913 499.378,479.369 456.465,359.448 375.601,239.533 302.286,125.423 272.6,79.27 246.111,37.538 227.363,0"
                 style="fill:none;stroke:#231f20;stroke-width:0.87199998;stroke-linecap:butt;stroke-linejoin:miter;stroke-miterlimit:4;stroke-dasharray:none;stroke-opacity:1"
                 id="path7451"
                 inkscape:connector-curvature="0" /><path
                 d="M 530.778,599.62 C 529.403,562.864 519.486,522.761 503.905,480.825 458.758,359.446 375.672,238.359 300.434,123.288 270.816,77.956 244.271,36.949 225.137,0"
                 style="fill:none;stroke:#231f20;stroke-width:0.87199998;stroke-linecap:butt;stroke-linejoin:miter;stroke-miterlimit:4;stroke-dasharray:none;stroke-opacity:1"
                 id="path7453"
                 inkscape:connector-curvature="0" /><path
                 d="M 536.11,599.62 C 533.908,563.131 523.482,523.456 507.622,482.002 460.664,359.43 375.726,237.383 298.913,121.526 269.302,76.896 242.783,36.47 223.373,0"
                 style="fill:none;stroke:#231f20;stroke-width:0.87199998;stroke-linecap:butt;stroke-linejoin:miter;stroke-miterlimit:4;stroke-dasharray:none;stroke-opacity:1"
                 id="path7455"
                 inkscape:connector-curvature="0" /><path
                 d="M 540.218,599.62 C 537.403,563.337 526.619,523.989 510.529,482.912 462.127,359.409 375.817,236.596 297.731,120.149 268.193,76.047 241.659,36.089 222.038,0"
                 style="fill:none;stroke:#231f20;stroke-width:0.87199998;stroke-linecap:butt;stroke-linejoin:miter;stroke-miterlimit:4;stroke-dasharray:none;stroke-opacity:1"
                 id="path7457"
                 inkscape:connector-curvature="0" /><path
                 d="M 543.124,599.62 C 539.886,563.485 528.859,524.371 512.608,483.56 463.225,359.389 375.825,236.056 296.885,119.161 267.338,75.461 240.854,35.82 221.104,0"
                 style="fill:none;stroke:#231f20;stroke-width:0.87199998;stroke-linecap:butt;stroke-linejoin:miter;stroke-miterlimit:4;stroke-dasharray:none;stroke-opacity:1"
                 id="path7459"
                 inkscape:connector-curvature="0" /><path
                 d="M 544.862,599.62 C 541.365,563.579 530.174,524.606 513.854,483.948 463.815,359.382 375.859,235.718 296.377,118.567 266.888,75.091 240.41,35.65 220.564,0"
                 style="fill:none;stroke:#231f20;stroke-width:0.87199998;stroke-linecap:butt;stroke-linejoin:miter;stroke-miterlimit:4;stroke-dasharray:none;stroke-opacity:1"
                 id="path7461"
                 inkscape:connector-curvature="0" /></g></g></g></g></g></g></svg>